<?xml version="1.0" encoding="UTF-8"?>
<svg xmlns="http://www.w3.org/2000/svg" viewBox="0 0 512 481.23">
  <path d="m450.43,134.48c42.2,62.58,69.49,127.47,59.51,188.95-9.97,61.38-57.1,119.47-115.63,143.8-58.53,24.22-128.45,14.69-204.08-10.96-75.62-25.65-156.95-67.51-181.72-134.15-24.77-66.75,6.9-158.37,63.9-224.35C129.41,31.79,211.61-8.55,281.31,1.54c69.71,9.97,126.81,70.36,169.11,132.95" fill="#09203f" stroke-width="0"/>
  <path d="m240.54,321.75c-1.69,0-3.08-.58-4.15-1.73-1.08-1.15-1.62-2.5-1.62-4.04v-149.95c0-1.69.54-3.08,1.62-4.15,1.08-1.08,2.46-1.62,4.15-1.62h30.92c1.69,0,3.11.54,4.27,1.62,1.15,1.08,1.73,2.46,1.73,4.15v149.95c0,1.54-.58,2.88-1.73,4.04-1.15,1.15-2.58,1.73-4.27,1.73h-30.92Z" fill="#fff" stroke-width="0"/>
</svg>
