<?xml version="1.0" encoding="UTF-8"?>
<svg id="Layer_1" xmlns="http://www.w3.org/2000/svg" version="1.1" viewBox="0 0 512 482">
  <path fill="#024" d="M450.43,134.7c42.2,62.68,69.49,127.68,59.51,189.26-9.97,61.48-57.1,119.66-115.63,144.03-58.53,24.26-128.45,14.71-204.08-10.98-75.62-25.69-156.95-67.62-181.72-134.37-24.77-66.86,6.9-158.63,63.9-224.71C129.41,31.84,211.61-8.56,281.31,1.54c69.71,9.99,126.81,70.47,169.11,133.16"/>
  <path fill="#FFF" d="M244.08,339c-1.69,0-3.13-.65-4.31-1.96-1.18-1.3-1.77-2.89-1.77-4.76v-182.56c0-1.86.59-3.45,1.77-4.76,1.18-1.3,2.62-1.96,4.31-1.96h23.83c1.86,0,3.34.66,4.44,1.96,1.1,1.31,1.65,2.9,1.65,4.76v182.56c0,1.87-.55,3.46-1.65,4.76-1.1,1.31-2.58,1.96-4.44,1.96h-23.83Z"/>
</svg>
